<svg xmlns="http://www.w3.org/2000/svg" xmlns:xlink="http://www.w3.org/1999/xlink" xmlns:lucid="lucid" width="1079.38" height="620"><g transform="translate(-20.169439440386455 -30)" lucid:page-tab-id="yRfgngmM4iCT"><path d="M499.55 578a8 8 0 0 1 8-8h204a8 8 0 0 1 8 8v44a8 8 0 0 1-8 8h-204a8 8 0 0 1-8-8z" stroke="#ff8f8f" fill="#fff0f0"/><use xlink:href="#a" transform="matrix(1,0,0,1,504.5479246810178,575) translate(38.625 30.025)"/><path d="M859.1 58a8 8 0 0 1 8-8h204a8 8 0 0 1 8 8v44a8 8 0 0 1-8 8h-204a8 8 0 0 1-8-8z" stroke="#54c45e" fill="#e3fae3"/><use xlink:href="#b" transform="matrix(1,0,0,1,864.095849362036,55) translate(50.12499999999999 30.025)"/><path d="M499.1 58a8 8 0 0 1 8-8h204a8 8 0 0 1 8 8v44a8 8 0 0 1-8 8h-204a8 8 0 0 1-8-8z" stroke="#54c45e" fill="#e3fae3"/><use xlink:href="#c" transform="matrix(1,0,0,1,504.095849362036,55) translate(58.099999999999994 30.025)"/><path d="M497.6 360.03l-1.46.03-2.8.18-2.68.28-2.57.38-2.5.47-2.4.56-2.33.66-2.3.73-2.26.84-2.23.95-2.23 1.05-2.23 1.16-2.25 1.3-2.28 1.46-2.35 1.62-2.4 1.83-2.54 2.1-2.67 2.4-2.87 2.82-3.2 3.4-3.7 4.3-4.72 6-26.84 36.85-3.7 4.3-3.2 3.4-2.88 2.83-2.67 2.4-2.5 2.1-2.43 1.83-2.34 1.63-2.3 1.46-2.24 1.3-2.25 1.17-2.23 1.05-2.24.95-2.26.84-.25.08" stroke="#00c2a8" stroke-width="3" stroke-linejoin="round" fill="none"/><path d="M499.1 361.5l-1.5.03-.08-3 1.57-.03z" stroke="#00c2a8" stroke-width=".05" fill="#00c2a8"/><path d="M364.8 459.23l13.34-6.83 1.47 9.15z" stroke="#00c2a8" stroke-width="3" fill="#00c2a8"/><path d="M859.55 178a8 8 0 0 1 8-8h204a8 8 0 0 1 8 8v44a8 8 0 0 1-8 8h-204a8 8 0 0 1-8-8z" stroke="#00c2a8" fill="#d7faf5"/><use xlink:href="#d" transform="matrix(1,0,0,1,864.5479246810178,175) translate(40.099999999999994 30.025)"/><path d="M859.55 468a8 8 0 0 1 8-8h204a8 8 0 0 1 8 8v44a8 8 0 0 1-8 8h-204a8 8 0 0 1-8-8z" stroke="#00c2a8" fill="#d7faf5"/><use xlink:href="#e" transform="matrix(1,0,0,1,864.5479246810178,465) translate(39.57499999999999 30.025)"/><path d="M859.55 338a8 8 0 0 1 8-8h204a8 8 0 0 1 8 8v44a8 8 0 0 1-8 8h-204a8 8 0 0 1-8-8z" stroke="#00c2a8" fill="#d7faf5"/><use xlink:href="#f" transform="matrix(1,0,0,1,864.5479246810178,335) translate(52.62499999999999 30.025)"/><path d="M499.55 338a8 8 0 0 1 8-8h204a8 8 0 0 1 8 8v44a8 8 0 0 1-8 8h-204a8 8 0 0 1-8-8z" stroke="#00c2a8" fill="#d7faf5"/><use xlink:href="#g" transform="matrix(1,0,0,1,504.5479246810178,335) translate(37.07499999999999 30.025)"/><path d="M721 360h119.6" stroke="#00c2a8" stroke-width="2" stroke-linejoin="round" fill="none"/><path d="M721.03 361H720v-2h1.03z" stroke="#00c2a8" stroke-width=".05" fill="#00c2a8"/><path d="M855.86 360l-14.27 4.64v-9.28z" stroke="#00c2a8" stroke-width="2" fill="#00c2a8"/><path d="M721 360.02l1.3.03 2.2.14 2.1.2 2.07.3 2 .4 1.97.46 1.93.53 1.9.6 1.9.72 1.87.8 1.9.87 1.88.98 1.9 1.1 1.96 1.24 1.98 1.38 2.04 1.55 2.1 1.75 2.22 1.98 2.3 2.27 2.48 2.63 2.66 3.1 2.93 3.7 3.32 4.58 3.98 6 5.34 8.86 25.96 46.42 3.98 6 3.32 4.6 2.93 3.7 2.67 3.08 2.46 2.63 2.32 2.27 2.2 1.98 2.1 1.75 2.05 1.55 2 1.38 1.93 1.23 1.9 1.12 1.9 1 1.9.87 1.87.78.27.1" stroke="#00c2a8" stroke-width="2" stroke-linejoin="round" fill="none"/><path d="M721.05 359.02l-.04 2-1-.02v-2z" stroke="#00c2a8" stroke-width=".05" fill="#00c2a8"/><path d="M855.9 489.42l-14.85 1.98 1.67-9.1z" stroke="#00c2a8" stroke-width="2" fill="#00c2a8"/><path d="M721 359.98l.87-.02 1.8-.1 1.76-.2 1.72-.25 1.7-.3 1.65-.4 1.64-.46 1.63-.53 1.62-.6 1.62-.68 1.63-.77 1.65-.86 1.67-.97 1.7-1.1 1.75-1.2 1.8-1.36 1.85-1.54 1.93-1.74 2.02-2 2.14-2.27 2.28-2.64 2.46-3.12 2.7-3.7 3-4.53 3.45-5.72 4.2-7.65 5.78-11.72 26.82-58.84 4.2-7.65 3.46-5.72 3-4.53 2.7-3.7 2.46-3.1 2.28-2.65 2.13-2.28 2.03-2 1.93-1.73 1.85-1.54 1.8-1.36 1.74-1.2 1.7-1.1 1.68-.96 1.65-.85.74-.35" stroke="#00c2a8" stroke-width="2" stroke-linejoin="round" fill="none"/><path d="M721.05 360.98L720 361v-2l1-.02z" stroke="#00c2a8" stroke-width=".05" fill="#00c2a8"/><path d="M855.94 200.7l-12.92 7.64-2.02-9.05z" stroke="#00c2a8" stroke-width="2" fill="#00c2a8"/><path d="M361 200.03l.5.03.74.08.74.1.74.15.74.16.75.2.76.26.77.28.77.33.8.38.82.43.84.5.87.54.9.63.95.72.98.8 1.05.95 1.1 1.1 1.2 1.24 1.24 1.47 1.36 1.72 1.48 2.02 1.62 2.44 1.78 2.95 2 3.64 2.25 4.56 2.6 5.82 3 7.65 3.63 10.44 4.5 15 6 23.58 9.73 46.46 12.28 65.64c2.72-.5 5.33 1.28 5.84 4 .5 2.7-1.28 5.32-4 5.83l18.3 97.72 6 23.57 4.52 15 3.62 10.43 3.02 7.65 2.6 5.82 2.24 4.56 2 3.63 1.78 2.94 1.62 2.44 1.47 2.03 1.35 1.73 1.26 1.46.88.92" stroke="#635dff" stroke-width="2" stroke-linejoin="round" fill="none"/><path d="M361.05 199.02l-.04 2-1-.02v-2z" stroke="#635dff" stroke-width=".05" fill="#635dff"/><path d="M496.2 598.56l-14.85-2.17 4.12-8.32z" stroke="#635dff" stroke-width="2" fill="#635dff"/><path d="M138.1 200.02l-2.57.05-3.45.22-3.37.34-3.27.5-3.2.6-3.16.74-3.1.87-3.06 1-3.02 1.12-3 1.26-3 1.4-2.98 1.57-2.97 1.72-2.98 1.9-3 2.06-3 2.28-3 2.5-3.05 2.74-3.07 3-3.1 3.32-3.15 3.64-3.17 4-3.2 4.42-3.23 4.87-3.25 5.38-3.27 5.95-3.26 6.57-3.25 7.27-3.17 8.03-3.08 8.84-2.93 9.7-2.7 10.6-2.45 11.47-2.08 12.3-1.64 13.06-1.15 13.63-.58 14v14.12l.6 14 1.13 13.62 1.65 13.05 2.08 12.3 2.43 11.48 2.72 10.6 2.93 9.7 3.08 8.84 3.18 8.02 3.23 7.26 3.26 6.58 3.26 5.95 3.26 5.36 3.23 4.87 3.22 4.42 3.17 4 3.13 3.64 3.1 3.3 3.08 3 3.05 2.75 3.02 2.5 3 2.27 3 2.08 2.97 1.9 2.97 1.7 3 1.56 2.98 1.4 3 1.27 3.03 1.13 3.07 1 3.1.86 1.68.4" stroke="#635dff" stroke-width="2" stroke-linejoin="round" fill="none"/><path d="M139.1 201l-1 .02-.05-2 1.04-.02z" stroke="#635dff" stroke-width=".05" fill="#635dff"/><path d="M135.88 559.63l-14.7 3 1.05-9.2z" stroke="#635dff" stroke-width="2" fill="#635dff"/><path d="M720.55 80h119.6" stroke="#008a0e" stroke-width="2" fill="none"/><path d="M720.57 81h-1.02v-2h1.02z" stroke="#008a0e" stroke-width=".05" fill="#008a0e"/><path d="M855.4 80l-14.26 4.64v-9.28z" stroke="#008a0e" stroke-width="2" fill="#008a0e"/><path d="M361 199.98l1.46-.03 2.35-.15 2.28-.24 2.2-.32 2.12-.4 2.08-.5 2.04-.56 2-.66 2-.74 1.97-.83 1.96-.93 2-1.03 2-1.17 2.02-1.3 2.08-1.43 2.13-1.62 2.2-1.83 2.3-2.08 2.45-2.4 2.6-2.78 2.86-3.32 3.2-4.03 3.75-5.17 4.83-7.3 27.7-45.66 3.76-5.17 3.2-4.03 2.84-3.3 2.6-2.8 2.46-2.4 2.3-2.07 2.22-1.83 2.13-1.62 2.06-1.44 2.04-1.3 2-1.15 1.98-1.02 1.97-.93 1.98-.83 1.37-.5" stroke="#635dff" stroke-width="2" stroke-linejoin="round" fill="none"/><path d="M361.05 200.98L360 201v-2l1-.02z" stroke="#635dff" stroke-width=".05" fill="#635dff"/><path d="M495.45 80.55l-13.28 6.97-1.56-9.14z" stroke="#635dff" stroke-width="2" fill="#635dff"/><path d="M249.55 390.95v22.22" stroke="#333" fill="none"/><path d="M250.05 390.96h-1v-.5h1z" stroke="#333" stroke-width=".05" fill="#333"/><path d="M249.55 427.93l-4.64-14.26h9.28z" stroke="#333" fill="#333"/><path d="M609.55 391.45v159.6" stroke="#00c2a8" stroke-width="2" fill="none"/><path d="M610.55 391.48h-2v-1.03h2z" stroke="#00c2a8" stroke-width=".05" fill="#00c2a8"/><path d="M609.55 566.3l-4.64-14.25h9.28z" stroke="#00c2a8" stroke-width="2" fill="#00c2a8"/><path d="M609.55 328.55V220.23a.23.23 0 0 0-.23-.23.23.23 0 0 1-.22-.23v-90.82" stroke="#00c2a8" stroke-width="2" fill="none"/><path d="M610.55 329.55h-2v-1.03h2z" stroke="#00c2a8" stroke-width=".05" fill="#00c2a8"/><path d="M609.1 113.7l4.63 14.25h-9.27z" stroke="#00c2a8" stroke-width="2" fill="#00c2a8"/><path d="M138.1 200.02h-.6l-1.52.1-1.5.17-1.46.2-1.42.27-1.4.33-1.38.4-1.36.43-1.35.5-1.33.56-1.32.62-1.33.7-1.32.75-1.32.84-1.33.94-1.34 1-1.33 1.12-1.35 1.22-1.37 1.34-1.38 1.47-1.4 1.6-1.4 1.78-1.43 1.97-1.43 2.16-1.44 2.4-1.45 2.64-1.44 2.93-1.44 3.23-1.4 3.57-1.38 3.93-1.3 4.3-1.2 4.72-1.1 5.1-.9 5.47-.74 5.8-.5 6.05-.27 6.22v6.28l.26 6.22.5 6.05.73 5.8.92 5.47 1.1 5.1 1.2 4.7 1.3 4.3 1.36 3.94 1.42 3.57 1.44 3.24 1.45 2.92 1.46 2.64 1.45 2.4 1.45 2.16 1.42 1.96 1.4 1.78 1.4 1.62 1.4 1.47 1.35 1.32 1.36 1.22 1.34 1.1 1.33 1.03 1.33.92 1.32.83.63.36" stroke="#635dff" stroke-width="2" stroke-linejoin="round" fill="none"/><path d="M139.1 201l-1 .02-.05-2 1.04-.02z" stroke="#635dff" stroke-width=".05" fill="#635dff"/><path d="M135.97 359.17l-14.98.8 2.38-8.96z" stroke="#635dff" stroke-width="2" fill="#635dff"/><path d="M138.1 200.02l-1.58.03-2.5.16-2.42.27-2.37.35-2.32.44-2.27.53-2.24.62-2.22.72-2.2.8-2.16.92-2.16 1.02-2.15 1.12-2.14 1.24-2.15 1.37-2.14 1.5-2.17 1.66-2.2 1.8-2.2 1.98-2.2 2.18-2.25 2.38-2.27 2.63-2.3 2.9-2.3 3.18-2.34 3.53-2.35 3.88-2.37 4.3-2.36 4.76-2.33 5.25-2.3 5.8-2.22 6.4-2.1 7-1.97 7.66-1.76 8.3-1.52 8.88-1.18 9.42-.83 9.84-.42 10.1v10.2l.42 10.12.83 9.84 1.2 9.42 1.5 8.9 1.75 8.28 1.96 7.65 2.13 7.02 2.22 6.4 2.3 5.78 2.33 5.25 2.35 4.75 2.36 4.3 2.35 3.88 2.33 3.52 2.32 3.18 2.3 2.9 2.25 2.62 2.24 2.4 2.2 2.16 2.2 1.98 2.2 1.8 2.16 1.65 2.16 1.5 2.15 1.36 2.15 1.24 2.15 1.12 2.16 1.02 2.17.9 2.2.83.7.23" stroke="#635dff" stroke-width="2" stroke-linejoin="round" fill="none"/><path d="M139.1 201l-1 .02-.05-2 1.04-.02z" stroke="#635dff" stroke-width=".05" fill="#635dff"/><path d="M135.9 459.5l-14.82 2.32 1.46-9.15z" stroke="#635dff" stroke-width="2" fill="#635dff"/><path d="M361.5 200.03h.37l1.8.12 1.76.2 1.72.24 1.7.3 1.65.4 1.64.46 1.63.53 1.62.6 1.62.68 1.63.77 1.65.86 1.67.97 1.7 1.1 1.75 1.2 1.8 1.36 1.85 1.54 1.93 1.74 2.02 2 2.14 2.27 2.28 2.64 2.46 3.12 2.7 3.7 3 4.53 3.45 5.72 4.2 7.65 5.78 11.72 26.82 58.84 4.2 7.65 3.46 5.72 3 4.53 2.7 3.7 2.46 3.1 2.28 2.65 2.13 2.28 2.03 2 1.93 1.73 1.85 1.54 1.8 1.36 1.74 1.2 1.7 1.1 1.68.96.5.25" stroke="#635dff" stroke-width="3" stroke-linejoin="round" fill="none"/><path d="M361.57 198.53l-.06 3-1.5-.03v-3z" stroke="#635dff" stroke-width=".05" fill="#635dff"/><path d="M494.4 358.82l-14.98 1.04 2.25-9z" stroke="#635dff" stroke-width="3" fill="#635dff"/><path d="M249.55 111.95v36.98" stroke="#1071e5" stroke-width="3" fill="none"/><path d="M251.05 112h-3v-1.55h3z" stroke="#1071e5" stroke-width=".05" fill="#1071e5"/><path d="M249.55 164.7l-4.64-14.27h9.28z" stroke="#1071e5" stroke-width="3" fill="#1071e5"/><path d="M361.5 200h242.6c0-2.76 2.23-5 5-5 2.76 0 5 2.24 5 5h224.38" stroke="#9391ff" stroke-width="3" fill="none"/><path d="M361.54 201.5H360v-3h1.54z" stroke="#9391ff" stroke-width=".05" fill="#9391ff"/><path d="M854.24 200l-14.26 4.64v-9.28z" stroke="#9391ff" stroke-width="3" fill="#9391ff"/><path d="M139.55 538a8 8 0 0 1 8-8h204a8 8 0 0 1 8 8v44a8 8 0 0 1-8 8h-204a8 8 0 0 1-8-8z" stroke="#9391ff" fill="#f2f2ff"/><use xlink:href="#h" transform="matrix(1,0,0,1,144.54792468101778,535) translate(64.05 30.025)"/><path d="M139.55 338a8 8 0 0 1 8-8h204a8 8 0 0 1 8 8v44a8 8 0 0 1-8 8h-204a8 8 0 0 1-8-8z" stroke="#9391ff" fill="#f2f2ff"/><use xlink:href="#i" transform="matrix(1,0,0,1,144.54792468101778,335) translate(4.650000000000006 30.025)"/><path d="M139.55 438a8 8 0 0 1 8-8h204a8 8 0 0 1 8 8v44a8 8 0 0 1-8 8h-204a8 8 0 0 1-8-8z" stroke="#9391ff" fill="#f2f2ff"/><use xlink:href="#j" transform="matrix(1,0,0,1,144.54792468101778,435.0000000000001) translate(13.125 30.025)"/><path d="M139.55 178a8 8 0 0 1 8-8h204a8 8 0 0 1 8 8v44a8 8 0 0 1-8 8h-204a8 8 0 0 1-8-8z" stroke="#9391ff" fill="#f2f2ff"/><use xlink:href="#k" transform="matrix(1,0,0,1,144.54792468101778,175) translate(69.05 30.025)"/><path d="M139.55 58a8 8 0 0 1 8-8h204a8 8 0 0 1 8 8v44a8 8 0 0 1-8 8h-204a8 8 0 0 1-8-8z" stroke="#6db1ff" fill="#edf5ff"/><use xlink:href="#l" transform="matrix(1,0,0,1,144.54792468101778,55) translate(44.55 30.025)"/><defs><path fill="#333" d="M212-179c-10-28-35-45-73-45-59 0-87 40-87 99 0 60 29 101 89 101 43 0 62-24 78-52l27 14C228-24 195 4 139 4 59 4 22-46 18-125c-6-104 99-153 187-111 19 9 31 26 39 46" id="m"/><path fill="#333" d="M84 4C-5 8 30-112 23-190h32v120c0 31 7 50 39 49 72-2 45-101 50-169h31l1 190h-30c-1-10 1-25-2-33-11 22-28 36-60 37" id="n"/><path fill="#333" d="M114-163C36-179 61-72 57 0H25l-1-190h30c1 12-1 29 2 39 6-27 23-49 58-41v29" id="o"/><path fill="#333" d="M100-194c63 0 86 42 84 106H49c0 40 14 67 53 68 26 1 43-12 49-29l28 8c-11 28-37 45-77 45C44 4 14-33 15-96c1-61 26-98 85-98zm52 81c6-60-76-77-97-28-3 7-6 17-6 28h103" id="p"/><path fill="#333" d="M117-194c89-4 53 116 60 194h-32v-121c0-31-8-49-39-48C34-167 62-67 57 0H25l-1-190h30c1 10-1 24 2 32 11-22 29-35 61-36" id="q"/><path fill="#333" d="M96-169c-40 0-48 33-48 73s9 75 48 75c24 0 41-14 43-38l32 2c-6 37-31 61-74 61-59 0-76-41-82-99-10-93 101-131 147-64 4 7 5 14 7 22l-32 3c-4-21-16-35-41-35" id="r"/><path fill="#333" d="M179-190L93 31C79 59 56 82 12 73V49c39 6 53-20 64-50L1-190h34L92-34l54-156h33" id="s"/><path fill="#333" d="M185-189c-5-48-123-54-124 2 14 75 158 14 163 119 3 78-121 87-175 55-17-10-28-26-33-46l33-7c5 56 141 63 141-1 0-78-155-14-162-118-5-82 145-84 179-34 5 7 8 16 11 25" id="t"/><path fill="#333" d="M108 0H70L1-190h34L89-25l56-165h34" id="u"/><path fill="#333" d="M24-231v-30h32v30H24zM24 0v-190h32V0H24" id="v"/><g id="a"><use transform="matrix(0.05,0,0,0.05,0,0)" xlink:href="#m"/><use transform="matrix(0.05,0,0,0.05,12.950000000000001,0)" xlink:href="#n"/><use transform="matrix(0.05,0,0,0.05,22.950000000000003,0)" xlink:href="#o"/><use transform="matrix(0.05,0,0,0.05,28.900000000000002,0)" xlink:href="#o"/><use transform="matrix(0.05,0,0,0.05,34.85,0)" xlink:href="#p"/><use transform="matrix(0.05,0,0,0.05,44.85,0)" xlink:href="#q"/><use transform="matrix(0.05,0,0,0.05,54.85,0)" xlink:href="#r"/><use transform="matrix(0.05,0,0,0.05,63.85,0)" xlink:href="#s"/><use transform="matrix(0.05,0,0,0.05,72.85,0)" xlink:href="#t"/><use transform="matrix(0.05,0,0,0.05,84.85,0)" xlink:href="#p"/><use transform="matrix(0.05,0,0,0.05,94.85,0)" xlink:href="#o"/><use transform="matrix(0.05,0,0,0.05,100.8,0)" xlink:href="#u"/><use transform="matrix(0.05,0,0,0.05,109.80000000000001,0)" xlink:href="#v"/><use transform="matrix(0.05,0,0,0.05,113.75,0)" xlink:href="#r"/><use transform="matrix(0.05,0,0,0.05,122.75,0)" xlink:href="#p"/></g><path fill="#333" d="M141-36C126-15 110 5 73 4 37 3 15-17 15-53c-1-64 63-63 125-63 3-35-9-54-41-54-24 1-41 7-42 31l-33-3c5-37 33-52 76-52 45 0 72 20 72 64v82c-1 20 7 32 28 27v20c-31 9-61-2-59-35zM48-53c0 20 12 33 32 33 41-3 63-29 60-74-43 2-92-5-92 41" id="w"/><path fill="#333" d="M106-169C34-169 62-67 57 0H25v-261h32l-1 103c12-21 28-36 61-36 89 0 53 116 60 194h-32v-121c2-32-8-49-39-48" id="x"/><path fill="#333" d="M87 75C49 33 22-17 22-94c0-76 28-126 65-167h31c-38 41-64 92-64 168S80 34 118 75H87" id="y"/><path fill="#333" d="M233-177c-1 41-23 64-60 70L243 0h-38l-65-103H63V0H30v-248c88 3 205-21 203 71zM63-129c60-2 137 13 137-47 0-61-80-42-137-45v92" id="z"/><path fill="#333" d="M85-194c31 0 48 13 60 33l-1-100h32l1 261h-30c-2-10 0-23-3-31C134-8 116 4 85 4 32 4 16-35 15-94c0-66 23-100 70-100zm9 24c-40 0-46 34-46 75 0 40 6 74 45 74 42 0 51-32 51-76 0-42-9-74-50-73" id="A"/><path fill="#333" d="M135-143c-3-34-86-38-87 0 15 53 115 12 119 90S17 21 10-45l28-5c4 36 97 45 98 0-10-56-113-15-118-90-4-57 82-63 122-42 12 7 21 19 24 35" id="B"/><path fill="#333" d="M33-261c38 41 65 92 65 168S71 34 33 75H2C39 34 66-17 66-93S39-220 2-261h31" id="C"/><g id="b"><use transform="matrix(0.05,0,0,0.05,0,0)" xlink:href="#m"/><use transform="matrix(0.05,0,0,0.05,12.950000000000001,0)" xlink:href="#w"/><use transform="matrix(0.05,0,0,0.05,22.950000000000003,0)" xlink:href="#r"/><use transform="matrix(0.05,0,0,0.05,31.950000000000003,0)" xlink:href="#x"/><use transform="matrix(0.05,0,0,0.05,41.95,0)" xlink:href="#p"/><use transform="matrix(0.05,0,0,0.05,51.95,0)" xlink:href="#y"/><use transform="matrix(0.05,0,0,0.05,57.900000000000006,0)" xlink:href="#z"/><use transform="matrix(0.05,0,0,0.05,70.85000000000001,0)" xlink:href="#p"/><use transform="matrix(0.05,0,0,0.05,80.85000000000001,0)" xlink:href="#A"/><use transform="matrix(0.05,0,0,0.05,90.85000000000001,0)" xlink:href="#v"/><use transform="matrix(0.05,0,0,0.05,94.80000000000001,0)" xlink:href="#B"/><use transform="matrix(0.05,0,0,0.05,103.80000000000001,0)" xlink:href="#C"/></g><path fill="#333" d="M59-47c-2 24 18 29 38 22v24C64 9 27 4 27-40v-127H5v-23h24l9-43h21v43h35v23H59v120" id="D"/><g id="c"><use transform="matrix(0.05,0,0,0.05,0,0)" xlink:href="#m"/><use transform="matrix(0.05,0,0,0.05,12.950000000000001,0)" xlink:href="#w"/><use transform="matrix(0.05,0,0,0.05,22.950000000000003,0)" xlink:href="#o"/><use transform="matrix(0.05,0,0,0.05,28.900000000000002,0)" xlink:href="#D"/><use transform="matrix(0.05,0,0,0.05,33.900000000000006,0)" xlink:href="#t"/><use transform="matrix(0.05,0,0,0.05,45.900000000000006,0)" xlink:href="#p"/><use transform="matrix(0.05,0,0,0.05,55.900000000000006,0)" xlink:href="#o"/><use transform="matrix(0.05,0,0,0.05,61.85,0)" xlink:href="#u"/><use transform="matrix(0.05,0,0,0.05,70.85000000000001,0)" xlink:href="#v"/><use transform="matrix(0.05,0,0,0.05,74.80000000000001,0)" xlink:href="#r"/><use transform="matrix(0.05,0,0,0.05,83.80000000000001,0)" xlink:href="#p"/></g><path fill="#333" d="M115-194c55 1 70 41 70 98S169 2 115 4C84 4 66-9 55-30l1 105H24l-1-265h31l2 30c10-21 28-34 59-34zm-8 174c40 0 45-34 45-75s-6-73-45-74c-42 0-51 32-51 76 0 43 10 73 51 73" id="E"/><path fill="#333" d="M177-190C167-65 218 103 67 71c-23-6-38-20-44-43l32-5c15 47 100 32 89-28v-30C133-14 115 1 83 1 29 1 15-40 15-95c0-56 16-97 71-98 29-1 48 16 59 35 1-10 0-23 2-32h30zM94-22c36 0 50-32 50-73 0-42-14-75-50-75-39 0-46 34-46 75s6 73 46 73" id="F"/><g id="d"><use transform="matrix(0.05,0,0,0.05,0,0)" xlink:href="#t"/><use transform="matrix(0.05,0,0,0.05,12,0)" xlink:href="#x"/><use transform="matrix(0.05,0,0,0.05,22,0)" xlink:href="#v"/><use transform="matrix(0.05,0,0,0.05,25.950000000000003,0)" xlink:href="#E"/><use transform="matrix(0.05,0,0,0.05,35.95,0)" xlink:href="#E"/><use transform="matrix(0.05,0,0,0.05,45.95,0)" xlink:href="#v"/><use transform="matrix(0.05,0,0,0.05,49.900000000000006,0)" xlink:href="#q"/><use transform="matrix(0.05,0,0,0.05,59.900000000000006,0)" xlink:href="#F"/><use transform="matrix(0.05,0,0,0.05,69.9,0)" xlink:href="#t"/><use transform="matrix(0.05,0,0,0.05,81.9,0)" xlink:href="#p"/><use transform="matrix(0.05,0,0,0.05,91.9,0)" xlink:href="#o"/><use transform="matrix(0.05,0,0,0.05,97.85000000000001,0)" xlink:href="#u"/><use transform="matrix(0.05,0,0,0.05,106.85000000000001,0)" xlink:href="#v"/><use transform="matrix(0.05,0,0,0.05,110.80000000000001,0)" xlink:href="#r"/><use transform="matrix(0.05,0,0,0.05,119.80000000000001,0)" xlink:href="#p"/></g><path fill="#333" d="M30-248c87 1 191-15 191 75 0 78-77 80-158 76V0H30v-248zm33 125c57 0 124 11 124-50 0-59-68-47-124-48v98" id="G"/><path fill="#333" d="M210-169c-67 3-38 105-44 169h-31v-121c0-29-5-50-35-48C34-165 62-65 56 0H25l-1-190h30c1 10-1 24 2 32 10-44 99-50 107 0 11-21 27-35 58-36 85-2 47 119 55 194h-31v-121c0-29-5-49-35-48" id="H"/><g id="e"><use transform="matrix(0.05,0,0,0.05,0,0)" xlink:href="#G"/><use transform="matrix(0.05,0,0,0.05,12,0)" xlink:href="#w"/><use transform="matrix(0.05,0,0,0.05,22,0)" xlink:href="#s"/><use transform="matrix(0.05,0,0,0.05,31,0)" xlink:href="#H"/><use transform="matrix(0.05,0,0,0.05,45.95,0)" xlink:href="#p"/><use transform="matrix(0.05,0,0,0.05,55.95,0)" xlink:href="#q"/><use transform="matrix(0.05,0,0,0.05,65.95,0)" xlink:href="#D"/><use transform="matrix(0.05,0,0,0.05,70.95,0)" xlink:href="#t"/><use transform="matrix(0.05,0,0,0.05,82.95,0)" xlink:href="#p"/><use transform="matrix(0.05,0,0,0.05,92.95,0)" xlink:href="#o"/><use transform="matrix(0.05,0,0,0.05,98.9,0)" xlink:href="#u"/><use transform="matrix(0.05,0,0,0.05,107.9,0)" xlink:href="#v"/><use transform="matrix(0.05,0,0,0.05,111.85000000000001,0)" xlink:href="#r"/><use transform="matrix(0.05,0,0,0.05,120.85000000000001,0)" xlink:href="#p"/></g><path fill="#333" d="M30 0v-248h187v28H63v79h144v27H63v87h162V0H30" id="I"/><path fill="#333" d="M24 0v-261h32V0H24" id="J"/><g id="f"><use transform="matrix(0.05,0,0,0.05,0,0)" xlink:href="#I"/><use transform="matrix(0.05,0,0,0.05,12,0)" xlink:href="#H"/><use transform="matrix(0.05,0,0,0.05,26.950000000000003,0)" xlink:href="#w"/><use transform="matrix(0.05,0,0,0.05,36.95,0)" xlink:href="#v"/><use transform="matrix(0.05,0,0,0.05,40.900000000000006,0)" xlink:href="#J"/><use transform="matrix(0.05,0,0,0.05,44.85000000000001,0)" xlink:href="#t"/><use transform="matrix(0.05,0,0,0.05,56.85,0)" xlink:href="#p"/><use transform="matrix(0.05,0,0,0.05,66.85000000000001,0)" xlink:href="#o"/><use transform="matrix(0.05,0,0,0.05,72.80000000000001,0)" xlink:href="#u"/><use transform="matrix(0.05,0,0,0.05,81.80000000000001,0)" xlink:href="#v"/><use transform="matrix(0.05,0,0,0.05,85.75000000000001,0)" xlink:href="#r"/><use transform="matrix(0.05,0,0,0.05,94.75000000000001,0)" xlink:href="#p"/></g><path fill="#333" d="M143 0L79-87 56-68V0H24v-261h32v163l83-92h37l-77 82L181 0h-38" id="K"/><path fill="#333" d="M100-194c62-1 85 37 85 99 1 63-27 99-86 99S16-35 15-95c0-66 28-99 85-99zM99-20c44 1 53-31 53-75 0-43-8-75-51-75s-53 32-53 75 10 74 51 75" id="L"/><g id="g"><use transform="matrix(0.05,0,0,0.05,0,0)" xlink:href="#m"/><use transform="matrix(0.05,0,0,0.05,12.950000000000001,0)" xlink:href="#x"/><use transform="matrix(0.05,0,0,0.05,22.950000000000003,0)" xlink:href="#p"/><use transform="matrix(0.05,0,0,0.05,32.95,0)" xlink:href="#r"/><use transform="matrix(0.05,0,0,0.05,41.95,0)" xlink:href="#K"/><use transform="matrix(0.05,0,0,0.05,50.95,0)" xlink:href="#L"/><use transform="matrix(0.05,0,0,0.05,60.95,0)" xlink:href="#n"/><use transform="matrix(0.05,0,0,0.05,70.95,0)" xlink:href="#D"/><use transform="matrix(0.05,0,0,0.05,75.95,0)" xlink:href="#t"/><use transform="matrix(0.05,0,0,0.05,87.95,0)" xlink:href="#p"/><use transform="matrix(0.05,0,0,0.05,97.95,0)" xlink:href="#o"/><use transform="matrix(0.05,0,0,0.05,103.9,0)" xlink:href="#u"/><use transform="matrix(0.05,0,0,0.05,112.9,0)" xlink:href="#v"/><use transform="matrix(0.05,0,0,0.05,116.85000000000001,0)" xlink:href="#r"/><use transform="matrix(0.05,0,0,0.05,125.85000000000001,0)" xlink:href="#p"/></g><path fill="#333" d="M205 0l-28-72H64L36 0H1l101-248h38L239 0h-34zm-38-99l-47-123c-12 45-31 82-46 123h93" id="M"/><g id="h"><use transform="matrix(0.05,0,0,0.05,0,0)" xlink:href="#M"/><use transform="matrix(0.05,0,0,0.05,12,0)" xlink:href="#A"/><use transform="matrix(0.05,0,0,0.05,22,0)" xlink:href="#t"/><use transform="matrix(0.05,0,0,0.05,34,0)" xlink:href="#p"/><use transform="matrix(0.05,0,0,0.05,44,0)" xlink:href="#o"/><use transform="matrix(0.05,0,0,0.05,49.95,0)" xlink:href="#u"/><use transform="matrix(0.05,0,0,0.05,58.95,0)" xlink:href="#v"/><use transform="matrix(0.05,0,0,0.05,62.900000000000006,0)" xlink:href="#r"/><use transform="matrix(0.05,0,0,0.05,71.9,0)" xlink:href="#p"/></g><g id="i"><use transform="matrix(0.05,0,0,0.05,0,0)" xlink:href="#z"/><use transform="matrix(0.05,0,0,0.05,12.950000000000001,0)" xlink:href="#p"/><use transform="matrix(0.05,0,0,0.05,22.950000000000003,0)" xlink:href="#r"/><use transform="matrix(0.05,0,0,0.05,31.950000000000003,0)" xlink:href="#L"/><use transform="matrix(0.05,0,0,0.05,41.95,0)" xlink:href="#H"/><use transform="matrix(0.05,0,0,0.05,56.900000000000006,0)" xlink:href="#H"/><use transform="matrix(0.05,0,0,0.05,71.85000000000001,0)" xlink:href="#p"/><use transform="matrix(0.05,0,0,0.05,81.85000000000001,0)" xlink:href="#q"/><use transform="matrix(0.05,0,0,0.05,91.85000000000001,0)" xlink:href="#A"/><use transform="matrix(0.05,0,0,0.05,101.85000000000001,0)" xlink:href="#w"/><use transform="matrix(0.05,0,0,0.05,111.85000000000001,0)" xlink:href="#D"/><use transform="matrix(0.05,0,0,0.05,116.85000000000001,0)" xlink:href="#v"/><use transform="matrix(0.05,0,0,0.05,120.80000000000001,0)" xlink:href="#L"/><use transform="matrix(0.05,0,0,0.05,130.8,0)" xlink:href="#q"/><use transform="matrix(0.05,0,0,0.05,140.8,0)" xlink:href="#t"/><use transform="matrix(0.05,0,0,0.05,152.8,0)" xlink:href="#p"/><use transform="matrix(0.05,0,0,0.05,162.8,0)" xlink:href="#o"/><use transform="matrix(0.05,0,0,0.05,168.75,0)" xlink:href="#u"/><use transform="matrix(0.05,0,0,0.05,177.75,0)" xlink:href="#v"/><use transform="matrix(0.05,0,0,0.05,181.7,0)" xlink:href="#r"/><use transform="matrix(0.05,0,0,0.05,190.7,0)" xlink:href="#p"/></g><g id="j"><use transform="matrix(0.05,0,0,0.05,0,0)" xlink:href="#G"/><use transform="matrix(0.05,0,0,0.05,12,0)" xlink:href="#o"/><use transform="matrix(0.05,0,0,0.05,17.95,0)" xlink:href="#L"/><use transform="matrix(0.05,0,0,0.05,27.950000000000003,0)" xlink:href="#A"/><use transform="matrix(0.05,0,0,0.05,37.95,0)" xlink:href="#n"/><use transform="matrix(0.05,0,0,0.05,47.95,0)" xlink:href="#r"/><use transform="matrix(0.05,0,0,0.05,56.95,0)" xlink:href="#D"/><use transform="matrix(0.05,0,0,0.05,61.95,0)" xlink:href="#m"/><use transform="matrix(0.05,0,0,0.05,74.9,0)" xlink:href="#w"/><use transform="matrix(0.05,0,0,0.05,84.9,0)" xlink:href="#D"/><use transform="matrix(0.05,0,0,0.05,89.9,0)" xlink:href="#w"/><use transform="matrix(0.05,0,0,0.05,99.9,0)" xlink:href="#J"/><use transform="matrix(0.05,0,0,0.05,103.85000000000001,0)" xlink:href="#L"/><use transform="matrix(0.05,0,0,0.05,113.85000000000001,0)" xlink:href="#F"/><use transform="matrix(0.05,0,0,0.05,123.85000000000001,0)" xlink:href="#t"/><use transform="matrix(0.05,0,0,0.05,135.85000000000002,0)" xlink:href="#p"/><use transform="matrix(0.05,0,0,0.05,145.85000000000002,0)" xlink:href="#o"/><use transform="matrix(0.05,0,0,0.05,151.8,0)" xlink:href="#u"/><use transform="matrix(0.05,0,0,0.05,160.8,0)" xlink:href="#v"/><use transform="matrix(0.05,0,0,0.05,164.75,0)" xlink:href="#r"/><use transform="matrix(0.05,0,0,0.05,173.75,0)" xlink:href="#p"/></g><path fill="#333" d="M63-220v92h138v28H63V0H30v-248h175v28H63" id="N"/><g id="k"><use transform="matrix(0.05,0,0,0.05,0,0)" xlink:href="#N"/><use transform="matrix(0.05,0,0,0.05,10.950000000000001,0)" xlink:href="#o"/><use transform="matrix(0.05,0,0,0.05,16.900000000000002,0)" xlink:href="#L"/><use transform="matrix(0.05,0,0,0.05,26.900000000000002,0)" xlink:href="#q"/><use transform="matrix(0.05,0,0,0.05,36.900000000000006,0)" xlink:href="#D"/><use transform="matrix(0.05,0,0,0.05,41.900000000000006,0)" xlink:href="#p"/><use transform="matrix(0.05,0,0,0.05,51.900000000000006,0)" xlink:href="#q"/><use transform="matrix(0.05,0,0,0.05,61.900000000000006,0)" xlink:href="#A"/></g><path fill="#333" d="M30 0v-248h33v221h125V0H30" id="O"/><path fill="#333" d="M143 4C61 4 22-44 18-125c-5-107 100-154 193-111 17 8 29 25 37 43l-32 9c-13-25-37-40-76-40-61 0-88 39-88 99 0 61 29 100 91 101 35 0 62-11 79-27v-45h-74v-28h105v86C228-13 192 4 143 4" id="P"/><g id="l"><use transform="matrix(0.05,0,0,0.05,0,0)" xlink:href="#O"/><use transform="matrix(0.05,0,0,0.05,10,0)" xlink:href="#L"/><use transform="matrix(0.05,0,0,0.05,20,0)" xlink:href="#w"/><use transform="matrix(0.05,0,0,0.05,30,0)" xlink:href="#A"/><use transform="matrix(0.05,0,0,0.05,40,0)" xlink:href="#P"/><use transform="matrix(0.05,0,0,0.05,54,0)" xlink:href="#p"/><use transform="matrix(0.05,0,0,0.05,64,0)" xlink:href="#q"/><use transform="matrix(0.05,0,0,0.05,74,0)" xlink:href="#p"/><use transform="matrix(0.05,0,0,0.05,84,0)" xlink:href="#o"/><use transform="matrix(0.05,0,0,0.05,89.95,0)" xlink:href="#w"/><use transform="matrix(0.05,0,0,0.05,99.95,0)" xlink:href="#D"/><use transform="matrix(0.05,0,0,0.05,104.95,0)" xlink:href="#L"/><use transform="matrix(0.05,0,0,0.05,114.95,0)" xlink:href="#o"/></g></defs></g></svg>